<svg xmlns="http://www.w3.org/2000/svg" viewBox="0 0 800 560" role="img" aria-label="Leads dashboard showing incoming estimate requests from scanned QR codes">
  <defs>
    <linearGradient id="bg3" x1="0" y1="0" x2="0" y2="1">
      <stop offset="0" stop-color="#f7f9fc"/>
      <stop offset="1" stop-color="#eef2f7"/>
    </linearGradient>
    <filter id="s3" x="-10%" y="-10%" width="120%" height="120%">
      <feDropShadow dx="0" dy="6" stdDeviation="10" flood-color="#0b1220" flood-opacity=".08"/>
    </filter>
  </defs>
  <rect width="800" height="560" fill="url(#bg3)"/>
  <g filter="url(#s3)">
    <rect x="40" y="30" width="720" height="500" rx="14" fill="#ffffff"/>
    <rect x="40" y="30" width="720" height="44" rx="14" fill="#f1f3f5"/>
    <rect x="40" y="60" width="720" height="14" fill="#f1f3f5"/>
    <circle cx="64" cy="52" r="6" fill="#ff5f56"/>
    <circle cx="84" cy="52" r="6" fill="#ffbd2e"/>
    <circle cx="104" cy="52" r="6" fill="#27c93f"/>
    <rect x="180" y="42" width="440" height="20" rx="10" fill="#ffffff" stroke="#e6e8ec"/>
    <text x="400" y="57" font-family="Inter,Arial,sans-serif" font-size="12" fill="#5a6472" text-anchor="middle">videodoorknock.com/rep/leads</text>
  </g>
  <g font-family="Inter,Arial,sans-serif">
    <text x="72" y="114" font-size="14" fill="#6b7280">Incoming</text>
    <text x="72" y="144" font-size="24" font-weight="700" fill="#111827">Leads</text>
    <rect x="600" y="118" width="128" height="32" rx="16" fill="#ecfdf5"/>
    <text x="664" y="138" font-size="12" font-weight="600" fill="#047857" text-anchor="middle">4 new this week</text>
  </g>
  <!-- Filter chips -->
  <g font-family="Inter,Arial,sans-serif" font-size="12">
    <rect x="72" y="170" width="72" height="28" rx="14" fill="#2f6bff"/>
    <text x="108" y="189" text-anchor="middle" fill="#fff" font-weight="600">All (9)</text>
    <rect x="152" y="170" width="80" height="28" rx="14" fill="#ffffff" stroke="#d1d5db"/>
    <text x="192" y="189" text-anchor="middle" fill="#374151">New (4)</text>
    <rect x="240" y="170" width="100" height="28" rx="14" fill="#ffffff" stroke="#d1d5db"/>
    <text x="290" y="189" text-anchor="middle" fill="#374151">Contacted (3)</text>
    <rect x="348" y="170" width="80" height="28" rx="14" fill="#ffffff" stroke="#d1d5db"/>
    <text x="388" y="189" text-anchor="middle" fill="#374151">Won (2)</text>
  </g>
  <!-- Lead rows -->
  <g font-family="Inter,Arial,sans-serif">
    <!-- row 1 -->
    <g>
      <rect x="72" y="212" width="656" height="64" rx="10" fill="#ffffff" stroke="#e5e7eb"/>
      <circle cx="104" cy="244" r="18" fill="#e0e7ff"/>
      <text x="104" y="250" font-size="14" font-weight="700" fill="#2f6bff" text-anchor="middle">SJ</text>
      <text x="136" y="238" font-size="13" font-weight="700" fill="#111827">Sarah Johnson</text>
      <text x="136" y="258" font-size="12" fill="#6b7280">880 E Stormy Dr · Exterior repaint</text>
      <rect x="440" y="228" width="76" height="22" rx="11" fill="#fef3c7"/>
      <text x="478" y="243" font-size="11" font-weight="600" fill="#92400e" text-anchor="middle">NEW</text>
      <text x="528" y="242" font-size="11" fill="#6b7280">12 min ago</text>
      <rect x="624" y="228" width="88" height="30" rx="15" fill="#2f6bff"/>
      <text x="668" y="248" font-size="11" font-weight="600" fill="#fff" text-anchor="middle">Call Now</text>
    </g>
    <!-- row 2 -->
    <g>
      <rect x="72" y="284" width="656" height="64" rx="10" fill="#ffffff" stroke="#e5e7eb"/>
      <circle cx="104" cy="316" r="18" fill="#fde68a"/>
      <text x="104" y="322" font-size="14" font-weight="700" fill="#92400e" text-anchor="middle">MR</text>
      <text x="136" y="310" font-size="13" font-weight="700" fill="#111827">Mike Ramirez</text>
      <text x="136" y="330" font-size="12" fill="#6b7280">412 N Maple Ave · Interior + cabinets</text>
      <rect x="440" y="300" width="76" height="22" rx="11" fill="#fef3c7"/>
      <text x="478" y="315" font-size="11" font-weight="600" fill="#92400e" text-anchor="middle">NEW</text>
      <text x="528" y="314" font-size="11" fill="#6b7280">2 hr ago</text>
      <rect x="624" y="300" width="88" height="30" rx="15" fill="#2f6bff"/>
      <text x="668" y="320" font-size="11" font-weight="600" fill="#fff" text-anchor="middle">Call Now</text>
    </g>
    <!-- row 3 -->
    <g>
      <rect x="72" y="356" width="656" height="64" rx="10" fill="#ffffff" stroke="#e5e7eb"/>
      <circle cx="104" cy="388" r="18" fill="#d1fae5"/>
      <text x="104" y="394" font-size="14" font-weight="700" fill="#047857" text-anchor="middle">DP</text>
      <text x="136" y="382" font-size="13" font-weight="700" fill="#111827">Dana Park</text>
      <text x="136" y="402" font-size="12" fill="#6b7280">27 Sandalwood Ln · Front door + trim</text>
      <rect x="440" y="372" width="96" height="22" rx="11" fill="#e0e7ff"/>
      <text x="488" y="387" font-size="11" font-weight="600" fill="#2f6bff" text-anchor="middle">CONTACTED</text>
      <text x="548" y="386" font-size="11" fill="#6b7280">Yesterday</text>
      <rect x="624" y="372" width="88" height="30" rx="15" fill="#ffffff" stroke="#d1d5db"/>
      <text x="668" y="392" font-size="11" font-weight="600" fill="#374151" text-anchor="middle">View</text>
    </g>
    <!-- row 4 -->
    <g>
      <rect x="72" y="428" width="656" height="64" rx="10" fill="#ffffff" stroke="#e5e7eb"/>
      <circle cx="104" cy="460" r="18" fill="#dcfce7"/>
      <text x="104" y="466" font-size="14" font-weight="700" fill="#047857" text-anchor="middle">TC</text>
      <text x="136" y="454" font-size="13" font-weight="700" fill="#111827">Tomás Castro</text>
      <text x="136" y="474" font-size="12" fill="#6b7280">19 Aspen Ct · Deck stain + fence</text>
      <rect x="440" y="444" width="64" height="22" rx="11" fill="#dcfce7"/>
      <text x="472" y="459" font-size="11" font-weight="600" fill="#047857" text-anchor="middle">WON</text>
      <text x="516" y="458" font-size="11" fill="#047857" font-weight="600">$4,200 job</text>
      <rect x="624" y="444" width="88" height="30" rx="15" fill="#ffffff" stroke="#d1d5db"/>
      <text x="668" y="464" font-size="11" font-weight="600" fill="#374151" text-anchor="middle">View</text>
    </g>
  </g>
</svg>
